# xmcd
#
# Track frame offsets:
#	150
#	18377
#	41604
#	61174
#	80909
#	101978
#	126439
#	145322
#	164040
#	189193
#	206302
#	229738
#	247883
#	265621
#	285441
#	307663
#	312992
#	332139
#
# Disc length: 4678 seconds
#
# Revision: 1
# Processed by: cddbd v1.5.2PL0 Copyright (c) Steve Scherf et al.
# Submitted via: audiograbber 1.83.01
#
DISCID=fa124412
DTITLE=Newly Deads - Dreams from a dirt map
DYEAR=2006
DGENRE=Rock
TTITLE0=Submission
TTITLE1=Sleeping Pill
TTITLE2=Night of the living dead
TTITLE3=Indenial
TTITLE4=Go
TTITLE5=Six feet deep
TTITLE6=Skin tight skin
TTITLE7=Die
TTITLE8=Cities in dust
TTITLE9=Poor little baby
TTITLE10=Melting
TTITLE11=Severed
TTITLE12=Black eye
TTITLE13=Hot pink hotrod
TTITLE14=Panties
TTITLE15=Bunch of BS
TTITLE16=Black and shiny
TTITLE17=Silent night
EXTD=
EXTT0=
EXTT1=
EXTT2=
EXTT3=
EXTT4=
EXTT5=
EXTT6=
EXTT7=
EXTT8=
EXTT9=
EXTT10=
EXTT11=
EXTT12=
EXTT13=
EXTT14=
EXTT15=
EXTT16=
EXTT17=
PLAYORDER=
